<?xml version="1.0" encoding="utf-8" ?>
<svg xmlns="http://www.w3.org/2000/svg" xmlns:xlink="http://www.w3.org/1999/xlink" width="75" height="75" viewBox="0 0 75 75">
	<defs>
		<clipPath id="clipPath7321858892">
			<path d="M0 0L75 0L75 75L0 75L0 0Z" fill-rule="nonzero" transform="matrix(1 0 0 1 0 0)"/>
		</clipPath>
	</defs>
	<g clip-path="url(#clipPath7321858892)">
		<circle cx="12.5" cy="12.5" r="12.5" stroke-width="5" transform="matrix(1 0 0 1 25 6.25)" stroke="rgb(194, 194, 194)" fill="transparent"/>
		<path d="M51.7373 18.1514Q53.75 22.91 53.75 28.125C53.75 29.5057 54.8693 30.625 56.25 30.625C57.6307 30.625 58.75 29.5057 58.75 28.125Q58.75 21.896 56.3423 16.2036Q54.0175 10.7073 49.7801 6.46987Q45.5427 2.23246 40.0464 -0.0923049Q34.354 -2.5 28.125 -2.5Q21.896 -2.5 16.2036 -0.092303Q10.7073 2.23245 6.46987 6.46987Q2.23245 10.7073 -0.0923052 16.2036Q-2.5 21.896 -2.5 28.125C-2.5 29.5057 -1.3807 30.625 0 30.625C1.3807 30.625 2.5 29.5057 2.5 28.125Q2.5 22.91 4.51272 18.1514Q6.45757 13.5532 10.0054 10.0054Q13.5532 6.45757 18.1514 4.51272Q22.91 2.5 28.125 2.5Q33.34 2.5 38.0986 4.51272Q42.6968 6.45757 46.2446 10.0054Q49.7924 13.5532 51.7373 18.1514Z" fill-rule="evenodd" transform="matrix(1 0 0 1 9.375 40.625)" fill="rgb(194, 194, 194)"/>
	</g>
</svg>
