<?xml version="1.0" encoding="utf-8" ?>
<svg xmlns="http://www.w3.org/2000/svg" xmlns:xlink="http://www.w3.org/1999/xlink" width="79" height="69" viewBox="0 0 79 69">
	<path d="M-2.22244 9.85511L3.44423 -1.14489Q3.52271 -1.29724 3.62125 -1.43746Q3.71979 -1.57767 3.83654 -1.70313Q3.95329 -1.82858 4.08607 -1.93694Q4.21885 -2.04529 4.36517 -2.13451Q4.5115 -2.22372 4.66862 -2.29214Q4.82575 -2.36056 4.99075 -2.40689Q5.15574 -2.45323 5.32552 -2.47661Q5.49529 -2.5 5.66667 -2.5L28.3333 -2.5Q28.5047 -2.5 28.6745 -2.47661Q28.8443 -2.45323 29.0093 -2.40689Q29.1742 -2.36056 29.3314 -2.29214Q29.4885 -2.22372 29.6348 -2.13451Q29.7811 -2.04529 29.9139 -1.93694Q30.0467 -1.82858 30.1635 -1.70313Q30.2802 -1.57767 30.3787 -1.43746Q30.4773 -1.29724 30.5558 -1.14489L36.2224 9.85511Q36.2787 9.96429 36.324 10.0785Q36.3692 10.1926 36.4031 10.3107Q36.437 10.4287 36.4591 10.5495Q36.4812 10.6704 36.4914 10.7927Q36.5016 10.9151 36.4997 11.0379Q36.4978 11.1607 36.484 11.2828Q36.4701 11.4048 36.4443 11.5249Q36.4185 11.645 36.3811 11.7619Q36.3436 11.8789 36.2949 11.9917Q36.2462 12.1044 36.1867 12.2118Q36.1271 12.3192 36.0574 12.4203Q35.9876 12.5214 35.9082 12.6151Q35.8289 12.7089 35.7407 12.7944Q35.6526 12.8799 35.5565 12.9564Q35.4604 13.0328 35.3572 13.0995Q35.2541 13.1662 35.1449 13.2224Q34.8793 13.3592 34.589 13.4296Q34.2987 13.5 34 13.5L0 13.5Q-0.122817 13.5 -0.245043 13.488Q-0.367269 13.4759 -0.487726 13.452Q-0.608183 13.428 -0.725712 13.3923Q-0.84324 13.3567 -0.956709 13.3097Q-1.07018 13.2627 -1.17849 13.2048Q-1.28681 13.1469 -1.38893 13.0787Q-1.49104 13.0104 -1.58598 12.9325Q-1.68092 12.8546 -1.76777 12.7678Q-1.85461 12.6809 -1.93253 12.586Q-2.01044 12.491 -2.07867 12.3889Q-2.14691 12.2868 -2.2048 12.1785Q-2.2627 12.0702 -2.3097 11.9567Q-2.3567 11.8432 -2.39235 11.7257Q-2.428 11.6082 -2.45196 11.4877Q-2.47592 11.3673 -2.48796 11.245Q-2.5 11.1228 -2.5 11Q-2.5 10.7013 -2.42962 10.411Q-2.35924 10.1207 -2.22244 9.85511ZM2.22244 12.1449L0 11L0 8.5L34 8.5L34 11L31.7776 12.1449L26.1109 1.14489L28.3333 0L28.3333 2.5L5.66667 2.5L5.66667 0L7.8891 1.14489L2.22244 12.1449Z" fill-rule="nonzero" transform="matrix(1 0 0 1 22.5 2.5)" fill="rgb(255, 255, 255)"/>
	<rect width="74" height="53" rx="1.5" ry="1.5" stroke-width="5" stroke-linejoin="round" transform="matrix(1 0 0 1 2.5 13.5)" stroke="rgb(255, 255, 255)" fill="transparent"/>
	<path d="M15 26.5Q17.5604 26.5 19.8926 25.5465Q22.139 24.628 23.8691 22.9556Q25.5902 21.2918 26.5309 19.1419Q27.5 16.927 27.5 14.5Q27.5 12.073 26.5309 9.85807Q25.5902 7.70817 23.8691 6.04441Q22.139 4.37201 19.8926 3.45353Q17.5604 2.5 15 2.5Q12.4396 2.5 10.1074 3.45353Q7.861 4.37201 6.13094 6.04441Q4.4098 7.70817 3.46912 9.85807Q2.5 12.073 2.5 14.5Q2.5 16.927 3.46912 19.1419Q4.4098 21.2918 6.13094 22.9556Q7.861 24.628 10.1074 25.5465Q12.4396 26.5 15 26.5ZM15 31.5Q11.4569 31.5 8.21518 30.1746Q5.07788 28.8919 2.65583 26.5505Q0.224848 24.2006 -1.11159 21.1462Q-2.5 17.973 -2.5 14.5Q-2.5 11.027 -1.11159 7.85379Q0.224849 4.79941 2.65583 2.44947Q5.07788 0.108149 8.21517 -1.17458Q11.4569 -2.5 15 -2.5Q18.5431 -2.5 21.7848 -1.17457Q24.9221 0.10815 27.3442 2.44947Q29.7751 4.79941 31.1116 7.85379Q32.5 11.027 32.5 14.5Q32.5 17.973 31.1116 21.1462Q29.7751 24.2006 27.3442 26.5505Q24.9221 28.8919 21.7848 30.1746Q18.5431 31.5 15 31.5Z" fill-rule="nonzero" transform="matrix(1 0 0 1 24.5 25.5)" fill="rgb(255, 255, 255)"/>
</svg>
