<?xml version="1.0" encoding="utf-8" ?>
<svg xmlns="http://www.w3.org/2000/svg" xmlns:xlink="http://www.w3.org/1999/xlink" width="104" height="104" viewBox="0 0 104 104">
	<path d="M50 98Q54.91 98 59.6758 97.0248Q64.3189 96.0747 68.6832 94.2287Q72.9688 92.4161 76.8359 89.8035Q80.667 87.2153 83.9411 83.9411Q87.2153 80.6669 89.8035 76.8359Q92.416 72.9689 94.2287 68.6832Q96.0747 64.3189 97.0248 59.6758Q98 54.91 98 50Q98 45.09 97.0248 40.3242Q96.0747 35.6811 94.2287 31.3168Q92.416 27.0312 89.8035 23.1641Q87.2153 19.333 83.9411 16.0589Q80.6669 12.7846 76.8359 10.1965Q72.9688 7.58394 68.6832 5.77125Q64.3189 3.92534 59.6758 2.97522Q54.91 2 50 2Q45.09 2 40.3242 2.97522Q35.6811 3.92534 31.3168 5.77126Q27.0312 7.58395 23.1641 10.1965Q19.3331 12.7847 16.0589 16.0589Q12.7847 19.3331 10.1965 23.1641Q7.58395 27.0311 5.77125 31.3168Q3.92534 35.6811 2.97522 40.3242Q2 45.09 2 50Q2 54.91 2.97522 59.6758Q3.92534 64.3189 5.77126 68.6832Q7.58393 72.9688 10.1965 76.8359Q12.7847 80.6669 16.0589 83.9411Q19.333 87.2153 23.1641 89.8035Q27.0311 92.416 31.3168 94.2287Q35.6811 96.0747 40.3242 97.0248Q45.09 98 50 98ZM50 102Q44.685 102 39.5223 100.944Q34.4893 99.9137 29.7586 97.9128Q25.1144 95.9484 20.9249 93.118Q16.7759 90.315 13.2304 86.7696Q9.68494 83.2241 6.88196 79.0751Q4.05154 74.8855 2.08724 70.2414Q0.0863163 65.5107 -0.943576 60.4777Q-2 55.3151 -2 50Q-2 44.6849 -0.943574 39.5223Q0.0863194 34.4893 2.08724 29.7586Q4.05157 25.1144 6.88196 20.9249Q9.68495 16.7759 13.2304 13.2304Q16.7759 9.68496 20.9249 6.88196Q25.1144 4.05156 29.7586 2.08724Q34.4893 0.0863158 39.5223 -0.943576Q44.6849 -2 50 -2Q55.3151 -2 60.4777 -0.943574Q65.5107 0.0863175 70.2414 2.08724Q74.8855 4.05155 79.0751 6.88196Q83.224 9.68493 86.7696 13.2304Q90.315 16.7759 93.118 20.9249Q95.9484 25.1144 97.9128 29.7586Q99.9137 34.4893 100.944 39.5223Q102 44.685 102 50Q102 55.315 100.944 60.4777Q99.9137 65.5107 97.9128 70.2414Q95.9484 74.8856 93.118 79.0751Q90.3151 83.2241 86.7696 86.7696Q83.2241 90.315 79.0751 93.118Q74.8855 95.9484 70.2414 97.9128Q65.5107 99.9137 60.4777 100.944Q55.315 102 50 102Z" fill-rule="nonzero" transform="matrix(1 0 0 1 2 2)" fill="rgb(255, 255, 255)"/>
	<path d="M26.2821 26.9231C40.7971 26.9231 52.5641 14.8691 52.5641 0L0 0C0 14.8691 11.767 26.9231 26.2821 26.9231Z" fill-rule="nonzero" transform="matrix(1 0 0 1 23.7949 55.8464)" fill="rgb(255, 255, 255)"/>
	<path d="M26.2821 24.4231Q31.1108 24.4231 35.5182 22.5134Q39.7834 20.6654 43.0773 17.2911Q46.3774 13.9105 48.1879 9.52551Q50.0641 4.98162 50.0641 3.8147e-06L52.5641 0L52.5641 2.5L0 2.5L0 0L2.5 0Q2.5 4.98162 4.37616 9.52551Q6.18672 13.9105 9.48682 17.2911Q12.7807 20.6654 17.0459 22.5134Q21.4534 24.4231 26.2821 24.4231L26.2821 24.4231ZM26.2821 29.4231Q20.4167 29.4231 15.058 27.1012Q9.89013 24.8621 5.90895 20.7838Q1.93392 16.7118 -0.245381 11.4337Q-2.5 5.97326 -2.5 0Q-2.5 -0.122817 -2.48796 -0.245043Q-2.47592 -0.367269 -2.45196 -0.487726Q-2.428 -0.608183 -2.39235 -0.725712Q-2.3567 -0.84324 -2.3097 -0.956709Q-2.2627 -1.07018 -2.2048 -1.17849Q-2.14691 -1.28681 -2.07867 -1.38893Q-2.01044 -1.49104 -1.93253 -1.58598Q-1.85461 -1.68092 -1.76777 -1.76777Q-1.68092 -1.85461 -1.58598 -1.93253Q-1.49104 -2.01044 -1.38893 -2.07867Q-1.28681 -2.14691 -1.17849 -2.2048Q-1.07018 -2.2627 -0.956709 -2.3097Q-0.84324 -2.3567 -0.725712 -2.39235Q-0.608183 -2.428 -0.487726 -2.45196Q-0.367269 -2.47592 -0.245043 -2.48796Q-0.122817 -2.5 0 -2.5L52.5641 -2.5Q52.6869 -2.5 52.8091 -2.48796Q52.9314 -2.47592 53.0518 -2.45196Q53.1723 -2.428 53.2898 -2.39235Q53.4073 -2.3567 53.5208 -2.3097Q53.6343 -2.2627 53.7426 -2.2048Q53.8509 -2.14691 53.953 -2.07867Q54.0551 -2.01044 54.1501 -1.93253Q54.245 -1.85461 54.3319 -1.76777Q54.4187 -1.68092 54.4966 -1.58598Q54.5745 -1.49104 54.6428 -1.38892Q54.711 -1.28681 54.7689 -1.17849Q54.8268 -1.07017 54.8738 -0.956706Q54.9208 -0.843238 54.9565 -0.725709Q54.9921 -0.60818 55.0161 -0.487723Q55.04 -0.367265 55.0521 -0.245039Q55.0641 -0.122813 55.0641 3.8147e-06Q55.0641 5.97326 52.8095 11.4337Q50.6302 16.7118 46.6552 20.7838Q42.674 24.8621 37.5061 27.1012Q32.1474 29.4231 26.2821 29.4231L26.2821 29.4231Z" fill-rule="nonzero" transform="matrix(1 0 0 1 23.7949 55.8464)" fill="rgb(255, 255, 255)"/>
	<path d="M2.25021 1.14573Q2.047 1.31743 1.86385 1.65277Q1.61337 2.11137 1.53421 2.67988Q1.30394 4.33374 2.55837 6.36543Q4.38274 9.32019 4.00019 11.9715Q3.84199 13.0678 3.31577 13.9794Q2.8509 14.7847 2.2006 15.2884L0.363487 12.9167Q0.547572 12.7741 0.717608 12.4796Q0.955192 12.068 1.03093 11.5431Q1.25796 9.96963 0.0057385 7.94152Q-0.939894 6.40997 -1.29362 4.90802Q-1.61498 3.54353 -1.43713 2.26617Q-1.28235 1.15456 -0.76903 0.214728Q-0.317282 -0.612364 0.313907 -1.14573L2.25021 1.14573Z" fill-rule="nonzero" transform="matrix(1 0 0 1 34.0513 28.923)" fill="rgb(255, 255, 255)"/>
	<path d="M2.99643 1.0479Q2.55592 1.49907 2.18871 2.31398Q1.71181 3.37229 1.56301 4.6676Q1.38066 6.25505 1.72212 8.01237Q2.1288 10.1053 3.25973 12.3255Q4.58086 14.9189 5.06814 17.3825Q5.4998 19.5647 5.26297 21.5542Q5.05835 23.273 4.3794 24.6986Q3.78169 25.9536 2.94984 26.7346L0.896431 24.5475Q1.31622 24.1533 1.6709 23.4086Q2.1377 22.4285 2.284 21.1996Q2.46473 19.6813 2.12516 17.9646Q1.71868 15.9096 0.586582 13.6872Q-0.735714 11.0914 -1.2228 8.58458Q-1.65259 6.37271 -1.41739 4.32523Q-1.21527 2.56576 -0.54642 1.08147Q0.0387559 -0.217124 0.849887 -1.0479L2.99643 1.0479Z" fill-rule="nonzero" transform="matrix(1 0 0 1 49.4355 17.3845)" fill="rgb(255, 255, 255)"/>
	<path d="M2.25021 1.14573Q2.047 1.31743 1.86385 1.65277Q1.61337 2.11137 1.53421 2.67988Q1.30394 4.33374 2.55837 6.36543Q4.38274 9.32019 4.00019 11.9715Q3.84199 13.0678 3.31577 13.9794Q2.8509 14.7847 2.2006 15.2884L0.363487 12.9167Q0.547572 12.7741 0.717608 12.4796Q0.955192 12.068 1.03093 11.5431Q1.25796 9.96963 0.0057385 7.94152Q-0.939894 6.40997 -1.29362 4.90802Q-1.61498 3.54353 -1.43713 2.26617Q-1.28235 1.15456 -0.76903 0.214728Q-0.317282 -0.612364 0.313907 -1.14573L2.25021 1.14573Z" fill-rule="nonzero" transform="matrix(1 0 0 1 64.8203 28.923)" fill="rgb(255, 255, 255)"/>
	<path d="M-1.41515 11.786Q0.448045 6.48453 0.790925 -0.0063343Q0.797926 -0.138868 0.828089 -0.268113Q0.858252 -0.397359 0.91064 -0.5193Q0.963028 -0.641242 1.03601 -0.75209Q1.109 -0.862939 1.20031 -0.959251Q1.29162 -1.05556 1.39843 -1.13434Q1.50524 -1.21313 1.62422 -1.27193Q1.7432 -1.33074 1.87065 -1.36774Q1.99811 -1.40474 2.13008 -1.41878Q2.89315 -1.5 3.67197 -1.5Q5.75083 -1.5 7.65922 -0.934425Q9.53535 -0.378408 11.0017 0.649058Q12.5275 1.71816 13.3857 3.1399Q14.3205 4.68845 14.3205 6.41026Q14.3205 8.13206 13.3857 9.68061Q12.5275 11.1024 11.0017 12.1715Q9.53535 13.1989 7.65922 13.7549Q5.75083 14.3205 3.67197 14.3205Q1.52252 14.3205 -0.44067 13.7171Q-0.511109 13.6955 -0.579086 13.667Q-0.647063 13.6386 -0.711925 13.6036Q-0.776787 13.5686 -0.837908 13.5275Q-0.899029 13.4863 -0.955821 13.4394Q-1.01261 13.3924 -1.06453 13.3401Q-1.11645 13.2878 -1.16299 13.2307Q-1.20953 13.1735 -1.25024 13.1121Q-1.29096 13.0507 -1.32546 12.9856Q-1.35996 12.9205 -1.38791 12.8523Q-1.41586 12.7841 -1.43699 12.7135Q-1.45813 12.6429 -1.47224 12.5706Q-1.48635 12.4983 -1.4933 12.4249Q-1.50026 12.3515 -1.49999 12.2779Q-1.49972 12.2042 -1.49223 12.1309Q-1.48474 12.0575 -1.4701 11.9853Q-1.45546 11.9131 -1.43381 11.8427Q-1.42504 11.8141 -1.41515 11.786L-1.41515 11.786ZM1.41515 12.7807L0 12.2833L0.44067 10.8495Q1.97313 11.3205 3.67197 11.3205Q5.31564 11.3205 6.80678 10.8786Q8.2142 10.4615 9.28021 9.71455Q10.2868 9.00924 10.8174 8.13025Q11.3205 7.29679 11.3205 6.41026Q11.3205 5.52372 10.8174 4.69026Q10.2868 3.81127 9.28021 3.10596Q8.2142 2.35903 6.80678 1.94192Q5.31564 1.5 3.67197 1.5Q3.05235 1.5 2.44759 1.56437L2.28884 0.0727917L3.78675 0.15192Q3.42115 7.07289 1.41515 12.7807Z" fill-rule="nonzero" transform="matrix(1 0 0 1 73.7949 58.4103)" fill="rgb(255, 255, 255)"/>
</svg>
