<?xml version="1.0" standalone="no"?>
<!DOCTYPE svg PUBLIC "-//W3C//DTD SVG 20010904//EN"
 "http://www.w3.org/TR/2001/REC-SVG-20010904/DTD/svg10.dtd">
<svg version="1.0" xmlns="http://www.w3.org/2000/svg"
 width="512.000000pt" height="512.000000pt" viewBox="0 0 512.000000 512.000000"
 preserveAspectRatio="xMidYMid meet">
<metadata>
Created by potrace 1.16, written by Peter Selinger 2001-2019
</metadata>
<g transform="translate(0.000000,512.000000) scale(0.100000,-0.100000)"
fill="#000000" stroke="none">
<path d="M1003 4998 c-75 -78 -88 -107 -88 -208 0 -98 18 -142 90 -219 23 -25
47 -56 54 -68 24 -46 7 -105 -42 -151 -58 -54 -56 -127 2 -152 42 -17 77 -3
121 49 63 72 82 120 82 204 0 91 -14 124 -91 216 -56 67 -61 78 -61 120 0 41
6 54 45 100 55 64 61 107 19 140 -44 35 -73 27 -131 -31z"/>
<path d="M2039 4991 c-46 -46 -61 -72 -75 -117 -32 -111 -6 -203 88 -309 49
-55 53 -62 53 -110 0 -45 -5 -56 -42 -101 -53 -62 -59 -110 -17 -143 40 -31
69 -26 119 20 122 113 136 283 32 409 -112 137 -115 168 -26 265 56 62 32 145
-43 145 -26 0 -43 -11 -89 -59z"/>
<path d="M3095 5009 c-98 -90 -128 -235 -71 -346 14 -29 30 -55 36 -58 6 -4
29 -29 50 -57 32 -40 40 -58 40 -92 0 -42 -11 -65 -62 -124 -36 -41 -37 -84
-3 -117 40 -41 71 -33 136 34 121 124 121 278 -1 416 -33 38 -63 79 -66 92
-10 40 5 88 37 119 63 59 74 126 26 159 -38 26 -74 19 -122 -26z"/>
<path d="M323 3731 c-73 -25 -127 -64 -168 -119 -71 -97 -80 -184 -44 -427
114 -781 383 -1494 761 -2022 l81 -113 1157 0 1157 0 55 78 c307 430 520 899
667 1462 75 288 142 673 142 815 0 145 -72 255 -209 318 l-47 22 -1750 2
c-1662 2 -1753 2 -1802 -16z m3247 -843 c19 -13 45 -45 59 -73 22 -42 26 -63
26 -135 -1 -102 -29 -174 -93 -238 -76 -76 -161 -77 -225 -1 -40 46 -57 97
-57 171 0 201 166 359 290 276z m-196 -677 c58 -60 36 -176 -43 -228 -47 -32
-77 -29 -117 11 -29 29 -34 41 -34 80 0 127 122 212 194 137z"/>
<path d="M4305 3222 l-50 -7 -11 -60 c-35 -184 -65 -367 -62 -370 2 -2 31 3
63 12 72 20 242 23 300 6 62 -19 121 -62 146 -107 31 -55 31 -163 0 -256 -84
-246 -314 -434 -676 -552 l-130 -42 -112 -225 c-62 -124 -110 -227 -107 -230
8 -8 236 38 369 74 489 134 829 378 990 709 123 253 129 549 14 742 -80 137
-226 240 -402 284 -85 21 -252 32 -332 22z"/>
<path d="M136 909 c-86 -20 -136 -87 -136 -182 0 -44 7 -70 35 -123 134 -256
378 -442 670 -510 76 -18 147 -19 1405 -19 1255 0 1329 1 1405 19 295 68 534
253 676 523 68 129 17 263 -112 292 -57 14 -3887 13 -3943 0z"/>
</g>
</svg>
