<?xml version="1.0" encoding="utf-8" ?>
<svg xmlns="http://www.w3.org/2000/svg" xmlns:xlink="http://www.w3.org/1999/xlink" width="72" height="77.0005" viewBox="0 0 72 77.0005">
	<path d="M2.5 24L2.5 72.0001L0 72.0001L0 69.5001L67 69.5001L67 72.0001L64.5 72.0001L64.5 24L67 24L65.544 26.0323L32.044 2.03228L33.5 0L34.9559 2.03228L1.45596 26.0323L0 24L2.5 24ZM-2.5 24Q-2.5 23.8516 -2.48243 23.7041Q-2.46485 23.5567 -2.42995 23.4124Q-2.39505 23.2681 -2.34331 23.1289Q-2.29157 22.9897 -2.22373 22.8576Q-2.15588 22.7256 -2.07288 22.6025Q-1.98987 22.4794 -1.89288 22.3669Q-1.79589 22.2545 -1.68628 22.1544Q-1.57666 22.0542 -1.45596 21.9677L32.044 -2.03228Q32.2023 -2.14565 32.3761 -2.23316Q32.55 -2.32066 32.7354 -2.3802Q32.9207 -2.43974 33.113 -2.46987Q33.3053 -2.5 33.5 -2.5Q33.6946 -2.5 33.887 -2.46987Q34.0793 -2.43974 34.2646 -2.3802Q34.4499 -2.32066 34.6238 -2.23316Q34.7977 -2.14565 34.9559 -2.03228L68.4559 21.9677Q68.5766 22.0542 68.6862 22.1544Q68.7959 22.2545 68.8929 22.3669Q68.9898 22.4794 69.0728 22.6025Q69.1558 22.7256 69.2237 22.8576Q69.2915 22.9897 69.3433 23.1289Q69.395 23.2681 69.4299 23.4124Q69.4648 23.5567 69.4824 23.7041Q69.5 23.8516 69.5 24L69.5 72.0001Q69.5 72.1229 69.4879 72.2451Q69.4759 72.3674 69.4519 72.4878Q69.428 72.6083 69.3923 72.7258Q69.3567 72.8433 69.3097 72.9568Q69.2627 73.0703 69.2048 73.1786Q69.1469 73.2869 69.0786 73.389Q69.0104 73.4911 68.9325 73.5861Q68.8546 73.681 68.7677 73.7679Q68.6809 73.8547 68.5859 73.9326Q68.491 74.0105 68.3889 74.0788Q68.2868 74.147 68.1785 74.2049Q68.0701 74.2628 67.9567 74.3098Q67.8432 74.3568 67.7257 74.3924Q67.6081 74.4281 67.4877 74.452Q67.3672 74.476 67.245 74.488Q67.1228 74.5001 67 74.5001L0 74.5001Q-0.122817 74.5001 -0.245043 74.4881Q-0.367269 74.476 -0.487726 74.452Q-0.608183 74.4281 -0.725712 74.3924Q-0.84324 74.3568 -0.956709 74.3098Q-1.07018 74.2628 -1.17849 74.2049Q-1.28681 74.147 -1.38893 74.0787Q-1.49104 74.0105 -1.58598 73.9326Q-1.68092 73.8547 -1.76777 73.7678Q-1.85461 73.681 -1.93253 73.5861Q-2.01044 73.4911 -2.07867 73.389Q-2.14691 73.2869 -2.2048 73.1786Q-2.2627 73.0703 -2.3097 72.9568Q-2.3567 72.8433 -2.39235 72.7258Q-2.428 72.6083 -2.45196 72.4878Q-2.47592 72.3674 -2.48796 72.2451Q-2.5 72.1229 -2.5 72.0001L-2.5 24Z" fill-rule="nonzero" transform="matrix(1 0 0 1 2.5 2.50049)" fill="rgb(194, 194, 194)"/>
	<path d="M-1.5 0L-1.5 26.1818Q-1.5 26.2555 -1.49278 26.3289Q-1.48555 26.4022 -1.47118 26.4745Q-1.4568 26.5468 -1.43541 26.6173Q-1.41402 26.6878 -1.38582 26.7559Q-1.35762 26.824 -1.32288 26.8889Q-1.28814 26.9539 -1.2472 27.0152Q-1.20626 27.0765 -1.15952 27.1334Q-1.11277 27.1904 -1.06066 27.2425Q-1.00855 27.2946 -0.95159 27.3414Q-0.894626 27.3881 -0.833355 27.429Q-0.772084 27.47 -0.707095 27.5047Q-0.642106 27.5395 -0.574025 27.5677Q-0.505944 27.5959 -0.435427 27.6173Q-0.36491 27.6386 -0.292635 27.653Q-0.220361 27.6674 -0.147026 27.6746Q-0.0736903 27.6818 0 27.6818L23.2639 27.6818Q23.3376 27.6818 23.4109 27.6746Q23.4842 27.6674 23.5565 27.653Q23.6288 27.6386 23.6993 27.6173Q23.7698 27.5959 23.8379 27.5677Q23.906 27.5395 23.971 27.5047Q24.036 27.47 24.0972 27.429Q24.1585 27.3881 24.2155 27.3414Q24.2724 27.2946 24.3245 27.2425Q24.3766 27.1904 24.4234 27.1334Q24.4701 27.0765 24.5111 27.0152Q24.552 26.9539 24.5868 26.8889Q24.6215 26.824 24.6497 26.7559Q24.6779 26.6878 24.6993 26.6173Q24.7207 26.5468 24.7351 26.4745Q24.7494 26.4022 24.7567 26.3289Q24.7639 26.2555 24.7639 26.1818L24.7639 0Q24.7639 -0.0736903 24.7567 -0.147026Q24.7494 -0.220361 24.7351 -0.292635Q24.7207 -0.36491 24.6993 -0.435427Q24.6779 -0.505944 24.6497 -0.574025Q24.6215 -0.642106 24.5868 -0.707095Q24.552 -0.772084 24.5111 -0.833355Q24.4701 -0.894626 24.4234 -0.95159Q24.3766 -1.00855 24.3245 -1.06066Q24.2724 -1.11277 24.2155 -1.15952Q24.1585 -1.20626 24.0972 -1.2472Q24.036 -1.28814 23.971 -1.32288Q23.906 -1.35762 23.8379 -1.38582Q23.7698 -1.41402 23.6993 -1.43541Q23.6288 -1.4568 23.5565 -1.47118Q23.4842 -1.48555 23.4109 -1.49278Q23.3376 -1.5 23.2639 -1.5L0 -1.5Q-0.0736903 -1.5 -0.147026 -1.49278Q-0.220361 -1.48555 -0.292635 -1.47118Q-0.36491 -1.4568 -0.435427 -1.43541Q-0.505944 -1.41402 -0.574025 -1.38582Q-0.642106 -1.35762 -0.707095 -1.32288Q-0.772084 -1.28814 -0.833355 -1.2472Q-0.894626 -1.20626 -0.95159 -1.15952Q-1.00855 -1.11277 -1.06066 -1.06066Q-1.11277 -1.00855 -1.15952 -0.95159Q-1.20626 -0.894626 -1.2472 -0.833355Q-1.28814 -0.772084 -1.32288 -0.707095Q-1.35762 -0.642106 -1.38582 -0.574025Q-1.41402 -0.505944 -1.43541 -0.435427Q-1.4568 -0.36491 -1.47118 -0.292635Q-1.48555 -0.220361 -1.49278 -0.147026Q-1.5 -0.0736903 -1.5 0ZM1.5 1.5L21.7639 1.5L21.7639 24.6818L1.5 24.6818L1.5 1.5Z" fill-rule="nonzero" transform="matrix(1 0 0 1 23.9028 48.3187)" fill="rgb(194, 194, 194)"/>
</svg>
