<?xml version="1.0" encoding="utf-8" ?>
<svg xmlns="http://www.w3.org/2000/svg" xmlns:xlink="http://www.w3.org/1999/xlink" width="49" height="63" viewBox="0 0 49 63">
	<path d="M-2 3.5C-2 0.462434 0.462434 -2 3.5 -2L17.5 -2C20.5376 -2 23 0.462434 23 3.5L23 36.5C23 39.5376 20.5376 42 17.5 42L3.5 42C0.462434 42 -2 39.5376 -2 36.5L-2 3.5ZM3.5 2C2.67157 2 2 2.67157 2 3.5L2 36.5C2 37.3284 2.67157 38 3.5 38L17.5 38C18.3284 38 19 37.3284 19 36.5L19 3.5C19 2.67157 18.3284 2 17.5 2L3.5 2Z" fill-rule="nonzero" transform="matrix(1 0 0 1 14 2)" fill="rgb(255, 255, 255)"/>
	<path d="M0 -2C-1.10456 -2 -2 -1.10456 -2 0Q-2 5.07678 -0.0798947 9.71732Q1.77583 14.2023 5.16041 17.6621Q8.5495 21.1265 12.9483 23.0283Q17.5085 25 22.5 25Q27.4915 25 32.0517 23.0283Q36.4505 21.1265 39.8396 17.6621Q43.2242 14.2023 45.0799 9.71732Q47 5.07678 47 -5.72205e-06C47 -1.10456 46.1046 -2 45 -2C43.8954 -2 43 -1.10456 43 0Q43 4.28193 41.3838 8.18799Q39.8239 11.9581 36.9803 14.8649Q34.1412 17.7671 30.4643 19.3568Q26.6638 21 22.5 21Q18.3362 21 14.5357 19.3568Q10.8588 17.7671 8.01975 14.8649Q5.17615 11.9581 3.61621 8.18799Q2 4.28192 2 0C2 -1.10456 1.10456 -2 0 -2Z" fill-rule="evenodd" transform="matrix(1 0 0 1 2 30)" fill="rgb(255, 255, 255)"/>
	<path d="M0 -2C-1.10456 -2 -2 -1.10456 -2 0L-2 9C-2 10.1046 -1.10456 11 0 11C1.10456 11 2 10.1046 2 9L2 0C2 -1.10456 1.10456 -2 0 -2Z" fill-rule="evenodd" transform="matrix(1 0 0 1 24 52)" fill="rgb(255, 255, 255)"/>
</svg>
