<?xml version="1.0" encoding="utf-8" ?>
<svg xmlns="http://www.w3.org/2000/svg" xmlns:xlink="http://www.w3.org/1999/xlink" width="186" height="186" viewBox="0 0 186 186">
	<path d="M91 180Q100.102 180 108.939 178.192Q117.549 176.43 125.642 173.007Q133.589 169.646 140.759 164.801Q147.862 160.003 153.933 153.933Q160.003 147.862 164.801 140.759Q169.646 133.589 173.007 125.642Q176.43 117.549 178.192 108.939Q180 100.102 180 91Q180 81.8976 178.192 73.0613Q176.43 64.451 173.007 56.3578Q169.646 48.4109 164.801 41.2406Q160.003 34.1377 153.933 28.0675Q147.862 21.9973 140.759 17.1986Q133.589 12.3545 125.642 8.99323Q117.549 5.5701 108.939 3.80818Q100.102 1.99999 91 1.99999Q81.8977 2 73.0613 3.80819Q64.4509 5.57012 56.3578 8.99324Q48.4108 12.3545 41.2406 17.1986Q34.1377 21.9972 28.0675 28.0675Q21.9972 34.1378 17.1986 41.2406Q12.3545 48.4109 8.99323 56.3578Q5.5701 64.451 3.80818 73.0613Q1.99999 81.8977 1.99999 91Q2 100.102 3.80819 108.939Q5.57012 117.549 8.99324 125.642Q12.3545 133.589 17.1986 140.759Q21.9973 147.862 28.0675 153.933Q34.1377 160.003 41.2406 164.801Q48.4109 169.646 56.3578 173.007Q64.451 176.43 73.0613 178.192Q81.8975 180 91 180ZM91 184Q81.4925 184 72.2594 182.111Q63.2593 180.269 54.7996 176.691Q46.4943 173.178 39.0014 168.116Q31.5806 163.102 25.2391 156.761Q18.8976 150.419 13.8841 142.999Q8.82211 135.506 5.30922 127.2Q1.7311 118.741 -0.110602 109.741Q-2 100.507 -2.00001 91Q-2.00001 81.4926 -0.110612 72.2594Q1.73108 63.2592 5.30921 54.7996Q8.8221 46.4942 13.8841 39.0014Q18.8975 31.5806 25.2391 25.2391Q31.5806 18.8975 39.0014 13.8841Q46.4942 8.82211 54.7996 5.30922Q63.2592 1.73109 72.2594 -0.110602Q81.4926 -2 91 -2.00001Q100.507 -2.00001 109.741 -0.110612Q118.741 1.73108 127.2 5.30921Q135.506 8.8221 142.999 13.8841Q150.419 18.8975 156.761 25.2391Q163.102 31.5806 168.116 39.0014Q173.178 46.4943 176.691 54.7996Q180.269 63.2592 182.111 72.2594Q184 81.4926 184 91Q184 100.508 182.111 109.741Q180.269 118.741 176.691 127.2Q173.178 135.506 168.116 142.999Q163.102 150.419 156.761 156.761Q150.419 163.102 142.999 168.116Q135.506 173.178 127.2 176.691Q118.741 180.269 109.741 182.111Q100.507 184 91 184Z" fill-rule="nonzero" transform="matrix(1 0 0 1 2 2)" fill="rgb(255, 255, 255)"/>
	<path d="M0 32.6667L0 0L28 16.3333L56 32.6667L28 49L0 65.3333L0 32.6667Z" fill-rule="nonzero" transform="matrix(1 0 0 1 74.3332 60.3332)" fill="rgb(255, 255, 255)"/>
	<path d="M-2 32.6667L-2 0Q-2 -0.0982537 -1.99037 -0.196034Q-1.98074 -0.293815 -1.96157 -0.390181Q-1.9424 -0.486546 -1.91388 -0.580569Q-1.88536 -0.674592 -1.84776 -0.765367Q-1.81016 -0.856141 -1.76384 -0.942793Q-1.71753 -1.02945 -1.66294 -1.11114Q-1.60835 -1.19284 -1.54602 -1.26879Q-1.48369 -1.34474 -1.41421 -1.41421Q-1.34474 -1.48369 -1.26879 -1.54602Q-1.19284 -1.60835 -1.11114 -1.66294Q-1.02945 -1.71753 -0.942793 -1.76384Q-0.856141 -1.81016 -0.765367 -1.84776Q-0.674592 -1.88536 -0.580569 -1.91388Q-0.486546 -1.9424 -0.390181 -1.96157Q-0.293815 -1.98074 -0.196034 -1.99037Q-0.0982537 -2 0 -2Q0.265582 -2 0.52196 -1.93069Q0.778338 -1.86138 1.00774 -1.72756L29.0077 14.6058L57.0077 30.9391Q57.0926 30.9886 57.1722 31.0462Q57.2518 31.1038 57.3254 31.1689Q57.399 31.234 57.4658 31.306Q57.5327 31.378 57.5921 31.4563Q57.6516 31.5345 57.7031 31.6181Q57.7546 31.7018 57.7977 31.7901Q57.8408 31.8784 57.8749 31.9706Q57.9091 32.0627 57.9342 32.1577Q57.9592 32.2527 57.9747 32.3497Q57.9903 32.4467 57.9963 32.5448Q58.0023 32.6429 57.9986 32.7411Q57.995 32.8392 57.9817 32.9366Q57.9684 33.034 57.9457 33.1295Q57.923 33.2251 57.891 33.318Q57.859 33.4109 57.818 33.5002Q57.7771 33.5895 57.7276 33.6744Q57.5972 33.8979 57.4142 34.0809Q57.2313 34.2638 57.0077 34.3942L29.0077 50.7276L1.00774 67.0609Q0.922873 67.1104 0.833559 67.1513Q0.744246 67.1923 0.651349 67.2243Q0.558452 67.2563 0.462865 67.279Q0.367279 67.3018 0.269925 67.315Q0.17257 67.3283 0.0743841 67.3319Q-0.0238017 67.3356 -0.121873 67.3296Q-0.219944 67.3236 -0.316956 67.3081Q-0.413968 67.2925 -0.508987 67.2675Q-0.604005 67.2425 -0.696115 67.2083Q-0.788226 67.1741 -0.87654 67.131Q-0.964855 67.088 -1.04852 67.0364Q-1.13219 66.9849 -1.21041 66.9255Q-1.28863 66.866 -1.36064 66.7992Q-1.43265 66.7323 -1.49776 66.6587Q-1.56288 66.5852 -1.62046 66.5056Q-1.67805 66.426 -1.72756 66.3411Q-1.86138 66.1117 -1.93069 65.8553Q-2 65.5989 -2 65.3333L-2 32.6667ZM2 32.6667L2 65.3333L0 65.3333L-1.00774 63.6058L26.9923 47.2724L54.9923 30.9391L56 32.6667L54.9923 34.3942L26.9923 18.0609L-1.00774 1.72756L0 0L2 0L2 32.6667Z" fill-rule="nonzero" transform="matrix(1 0 0 1 74.3332 60.3332)" fill="rgb(255, 255, 255)"/>
</svg>
