<?xml version="1.0" encoding="utf-8" ?>
<svg xmlns="http://www.w3.org/2000/svg" xmlns:xlink="http://www.w3.org/1999/xlink" width="78" height="78" viewBox="0 0 78 78">
	<defs>
		<clipPath id="clipPath1092947025">
			<path d="M0 0L78 0L78 78L0 78L0 0Z" fill-rule="nonzero" transform="matrix(1 0 0 1 0 0)"/>
		</clipPath>
	</defs>
	<g clip-path="url(#clipPath1092947025)">
		<path d="M27.625 52.75Q32.7383 52.75 37.404 50.7766Q41.9124 48.8697 45.391 45.391Q48.8697 41.9124 50.7766 37.404Q52.75 32.7383 52.75 27.625Q52.75 22.5117 50.7766 17.846Q48.8697 13.3376 45.391 9.85897Q41.9124 6.38034 37.404 4.47343Q32.7383 2.5 27.625 2.5Q22.5117 2.5 17.846 4.47343Q13.3376 6.38034 9.85897 9.85897Q6.38034 13.3376 4.47343 17.846Q2.5 22.5117 2.5 27.625Q2.5 32.7383 4.47343 37.404Q6.38034 41.9124 9.85897 45.391Q13.3376 48.8697 17.846 50.7766Q22.5117 52.75 27.625 52.75ZM27.625 57.75Q21.4978 57.75 15.8982 55.3816Q10.4916 53.0948 6.32343 48.9266Q2.15522 44.7583 -0.131591 39.3517Q-2.5 33.7522 -2.5 27.625Q-2.5 21.4978 -0.131588 15.8982Q2.15522 10.4916 6.32343 6.32343Q10.4916 2.15522 15.8982 -0.131591Q21.4978 -2.5 27.625 -2.5Q33.7522 -2.5 39.3517 -0.131588Q44.7583 2.15522 48.9266 6.32343Q53.0948 10.4916 55.3816 15.8982Q57.75 21.4978 57.75 27.625Q57.75 33.7522 55.3816 39.3517Q53.0948 44.7583 48.9266 48.9266Q44.7584 53.0948 39.3517 55.3816Q33.7522 57.75 27.625 57.75Z" fill-rule="nonzero" transform="matrix(1 0 0 1 6.50005 6.49964)" fill="rgb(255, 255, 255)"/>
		<path d="M13.863 1.94258Q16.0163 2.85333 17.6777 4.51464C18.0682 4.90516 18.7013 4.90516 19.0919 4.51464C19.4824 4.12412 19.4824 3.49095 19.0919 3.10043Q17.1547 1.16328 14.6421 0.100568Q12.04 -1 9.1923 -1Q6.34471 -1 3.74263 0.10057Q1.23004 1.16329 -0.707106 3.10043C-1.09763 3.49095 -1.09763 4.12412 -0.707107 4.51464C-0.316586 4.90516 0.316586 4.90516 0.707107 4.51464Q2.36841 2.85334 4.52172 1.94258Q6.75027 1 9.1923 1Q11.6344 1 13.863 1.94258Z" fill-rule="evenodd" transform="matrix(1 0 0 1 24.9327 19.5)" fill="rgb(255, 255, 255)"/>
		<path d="M-3.53553 0L18.3857 21.9212L21.9212 18.3857L0 -3.53553L-3.53553 0Z" fill-rule="evenodd" transform="matrix(1 0 0 1 54.6 54.6)" fill="rgb(255, 255, 255)"/>
	</g>
</svg>
