<?xml version="1.0" encoding="utf-8" ?>
<svg xmlns="http://www.w3.org/2000/svg" xmlns:xlink="http://www.w3.org/1999/xlink" width="104" height="104" viewBox="0 0 104 104">
	<path d="M50 98Q54.91 98 59.6758 97.0248Q64.3189 96.0747 68.6832 94.2287Q72.9688 92.4161 76.8359 89.8035Q80.667 87.2153 83.9411 83.9411Q87.2153 80.6669 89.8035 76.8359Q92.416 72.9689 94.2287 68.6832Q96.0747 64.3189 97.0248 59.6758Q98 54.91 98 50Q98 45.09 97.0248 40.3242Q96.0747 35.6811 94.2287 31.3168Q92.416 27.0312 89.8035 23.1641Q87.2153 19.333 83.9411 16.0589Q80.6669 12.7846 76.8359 10.1965Q72.9688 7.58394 68.6832 5.77125Q64.3189 3.92534 59.6758 2.97522Q54.91 2 50 2Q45.09 2 40.3242 2.97522Q35.6811 3.92534 31.3168 5.77126Q27.0312 7.58395 23.1641 10.1965Q19.3331 12.7847 16.0589 16.0589Q12.7847 19.3331 10.1965 23.1641Q7.58395 27.0311 5.77125 31.3168Q3.92534 35.6811 2.97522 40.3242Q2 45.09 2 50Q2 54.91 2.97522 59.6758Q3.92534 64.3189 5.77126 68.6832Q7.58393 72.9688 10.1965 76.8359Q12.7847 80.6669 16.0589 83.9411Q19.333 87.2153 23.1641 89.8035Q27.0311 92.416 31.3168 94.2287Q35.6811 96.0747 40.3242 97.0248Q45.09 98 50 98ZM50 102Q44.685 102 39.5223 100.944Q34.4893 99.9137 29.7586 97.9128Q25.1144 95.9484 20.9249 93.118Q16.7759 90.315 13.2304 86.7696Q9.68494 83.2241 6.88196 79.0751Q4.05154 74.8855 2.08724 70.2414Q0.0863163 65.5107 -0.943576 60.4777Q-2 55.3151 -2 50Q-2 44.6849 -0.943574 39.5223Q0.0863194 34.4893 2.08724 29.7586Q4.05157 25.1144 6.88196 20.9249Q9.68495 16.7759 13.2304 13.2304Q16.7759 9.68496 20.9249 6.88196Q25.1144 4.05156 29.7586 2.08724Q34.4893 0.0863158 39.5223 -0.943576Q44.6849 -2 50 -2Q55.3151 -2 60.4777 -0.943574Q65.5107 0.0863175 70.2414 2.08724Q74.8855 4.05155 79.0751 6.88196Q83.224 9.68493 86.7696 13.2304Q90.315 16.7759 93.118 20.9249Q95.9484 25.1144 97.9128 29.7586Q99.9137 34.4893 100.944 39.5223Q102 44.685 102 50Q102 55.315 100.944 60.4777Q99.9137 65.5107 97.9128 70.2414Q95.9484 74.8856 93.118 79.0751Q90.3151 83.2241 86.7696 86.7696Q83.2241 90.315 79.0751 93.118Q74.8855 95.9484 70.2414 97.9128Q65.5107 99.9137 60.4777 100.944Q55.315 102 50 102Z" fill-rule="nonzero" transform="matrix(1 0 0 1 2 2)" fill="rgb(255, 255, 255)"/>
	<path d="M44.0263 0.825876L29.443 42.4925Q29.4024 42.6085 29.3507 42.7199Q29.2989 42.8312 29.2365 42.937Q29.1741 43.0428 29.1016 43.1419Q29.0292 43.2411 28.9473 43.3327Q28.8655 43.4242 28.775 43.5074Q28.6846 43.5905 28.5865 43.6643Q28.4883 43.7382 28.3834 43.802Q28.2785 43.8659 28.1679 43.9192Q28.0572 43.9725 27.9419 44.0146Q27.8265 44.0568 27.7076 44.0875Q27.5887 44.1181 27.4673 44.137Q27.3459 44.1559 27.2233 44.1627Q27.1007 44.1696 26.978 44.1644Q26.8553 44.1593 26.7337 44.1421Q26.6121 44.1249 26.4927 44.0959Q26.3734 44.0669 26.2575 44.0263Q26.016 43.9418 25.7966 43.8101Q25.5772 43.6784 25.3891 43.505Q25.201 43.3316 25.0518 43.1237Q24.9027 42.9158 24.7988 42.682L16.4655 23.932L18.75 22.9167L17.7347 25.2012L-1.01535 16.8679Q-1.12758 16.818 -1.23438 16.7573Q-1.34118 16.6967 -1.44153 16.6259Q-1.54187 16.5551 -1.63479 16.4747Q-1.72771 16.3944 -1.81231 16.3054Q-1.89691 16.2164 -1.97237 16.1195Q-2.04784 16.0226 -2.11345 15.9187Q-2.17905 15.8149 -2.23416 15.7052Q-2.28928 15.5954 -2.33336 15.4808Q-2.37745 15.3661 -2.41009 15.2477Q-2.44273 15.1293 -2.46361 15.0083Q-2.48449 14.8873 -2.4934 14.7648Q-2.50232 14.6423 -2.49919 14.5195Q-2.49605 14.3967 -2.4809 14.2749Q-2.46574 14.153 -2.43872 14.0332Q-2.41169 13.9134 -2.37305 13.7968Q-2.33441 13.6802 -2.28453 13.568Q-2.18062 13.3342 -2.0315 13.1263Q-1.88238 12.9184 -1.69424 12.745Q-1.5061 12.5716 -1.28673 12.4399Q-1.06737 12.3082 -0.825876 12.2237L40.8408 -2.35965Q40.9567 -2.40022 41.0761 -2.42923Q41.1954 -2.45825 41.317 -2.47543Q41.4386 -2.4926 41.5613 -2.49778Q41.684 -2.50295 41.8067 -2.49608Q41.9293 -2.4892 42.0506 -2.47034Q42.172 -2.45147 42.2909 -2.42081Q42.4099 -2.39014 42.5252 -2.34796Q42.6405 -2.30578 42.7512 -2.2525Q42.8619 -2.19922 42.9668 -2.13535Q43.0717 -2.07148 43.1698 -1.99764Q43.2679 -1.9238 43.3584 -1.84069Q43.4488 -1.75758 43.5306 -1.66601Q43.6125 -1.57444 43.685 -1.47528Q43.7574 -1.37613 43.8199 -1.27035Q43.8823 -1.16457 43.934 -1.05318Q43.9857 -0.941798 44.0263 -0.825876Q44.096 -0.626797 44.1313 -0.418859Q44.1667 -0.21092 44.1667 7.45058e-08Q44.1667 0.21092 44.1313 0.418859Q44.096 0.626797 44.0263 0.825876L44.0263 0.825876ZM39.307 -0.825876L41.6667 0L42.4925 2.35965L0.825876 16.943L0 14.5833L1.01535 12.2988L19.7653 20.6321Q19.9756 20.7256 20.1653 20.8559Q20.355 20.9862 20.5178 21.1489Q20.6805 21.3116 20.8108 21.5013Q20.9411 21.691 21.0345 21.9013L29.3679 40.6513L27.0833 41.6667L24.7237 40.8408L39.307 -0.825876Z" fill-rule="nonzero" transform="matrix(1 0 0 1 30.7881 30.7878)" fill="rgb(255, 255, 255)"/>
	<path d="M22.6768 -0.707107C22.2863 -1.09763 21.6531 -1.09763 21.2626 -0.707107L-0.707107 21.2626C-1.09763 21.6531 -1.09763 22.2863 -0.707107 22.6768C-0.316586 23.0673 0.316586 23.0673 0.707107 22.6768L22.6768 0.707107C23.0673 0.316586 23.0673 -0.316586 22.6768 -0.707107Z" fill-rule="evenodd" transform="matrix(1 0 0 1 50.4849 30.7878)" fill="rgb(255, 255, 255)"/>
</svg>
